<?xml version="1.0" standalone="no"?>
<!DOCTYPE svg PUBLIC "-//W3C//DTD SVG 20010904//EN"
 "http://www.w3.org/TR/2001/REC-SVG-20010904/DTD/svg10.dtd">
<svg version="1.0" xmlns="http://www.w3.org/2000/svg"
 width="700.000000pt" height="700.000000pt" viewBox="0 0 700.000000 700.000000"
 preserveAspectRatio="xMidYMid meet">
<metadata>
Created by potrace 1.14, written by Peter Selinger 2001-2017
</metadata>
<g transform="translate(0.000000,700.000000) scale(0.100000,-0.100000)"
fill="#000000" stroke="none">
<path d="M17 6762 c-16 -17 -17 -212 -17 -2603 0 -2217 2 -2588 14 -2605 13
-18 29 -19 231 -21 203 -1 218 0 233 18 16 18 17 110 19 1117 0 603 2 1111 2
1127 l1 30 827 -2 c456 -1 831 -2 835 -2 4 -1 7 -508 7 -1128 l0 -1128 21 -17
c18 -15 46 -17 223 -16 203 1 246 8 248 37 1 9 2 517 3 1130 l1 1115 25 5 c37
9 1629 6 1637 -3 5 -4 8 -511 8 -1126 0 -1073 1 -1119 19 -1138 17 -20 29 -21
228 -20 176 1 213 4 229 17 20 16 20 35 20 1144 l0 1127 22 1 c12 0 388 2 834
2 l813 2 1 -25 c0 -14 1 -523 2 -1132 2 -1082 2 -1107 21 -1121 29 -21 421
-22 454 -1 l22 14 0 2588 c0 2326 -2 2590 -16 2610 -15 22 -19 22 -228 22
-167 0 -216 -3 -232 -14 -19 -14 -19 -38 -20 -1143 l-1 -1128 -836 -3 -836 -2
0 1126 c0 1052 -1 1127 -17 1145 -16 18 -33 19 -230 19 -198 0 -215 -1 -231
-19 -17 -19 -18 -77 -18 -1145 l0 -1126 -835 0 -835 0 0 1126 c0 1068 -1 1127
-18 1145 -16 18 -33 19 -222 19 -259 0 -255 2 -255 -99 -1 -42 -1 -552 -1
-1133 l0 -1058 -835 0 c-458 0 -834 3 -835 8 0 4 -2 512 -2 1130 -2 1100 -2
1124 -21 1138 -16 11 -64 14 -231 14 -193 0 -213 -2 -228 -18z"/>
<path d="M18 1369 c-19 -11 -14 -34 9 -43 13 -5 14 -4 4 8 -14 17 -5 40 11 30
7 -4 8 -2 4 4 -8 14 -7 14 -28 1z"/>
<path d="M282 1364 c-8 -9 -22 -12 -38 -8 -21 6 -25 3 -22 -11 1 -10 10 -20
18 -22 13 -4 13 -3 0 6 -13 9 -13 11 1 11 8 0 20 -5 27 -12 14 -14 41 5 38 27
-3 22 -10 24 -24 9z m8 -24 c0 -5 -2 -10 -4 -10 -3 0 -8 5 -11 10 -3 6 -1 10
4 10 6 0 11 -4 11 -10z"/>
<path d="M341 1352 c-1 -27 3 -33 16 -30 22 4 30 38 10 38 -9 0 -18 6 -20 13
-3 6 -6 -3 -6 -21z m29 -6 c0 -3 -4 -8 -10 -11 -5 -3 -10 -1 -10 4 0 6 5 11
10 11 6 0 10 -2 10 -4z"/>
<path d="M466 1359 c-16 -23 -16 -24 5 -27 27 -5 31 0 21 28 l-9 23 -17 -24z"/>
<path d="M869 1378 c-1 -2 -3 -16 -5 -33 -2 -22 -1 -26 6 -15 8 13 10 13 10 1
0 -12 3 -12 12 -3 9 9 8 15 -8 28 -10 8 -13 13 -6 9 6 -3 12 -1 12 4 0 9 -18
16 -21 9z"/>
<path d="M1021 1373 c0 -7 -8 -13 -16 -13 -20 0 -19 -26 1 -34 22 -9 26 -3 21
31 -2 15 -5 22 -6 16z m-1 -33 c0 -5 -2 -10 -4 -10 -3 0 -8 5 -11 10 -3 6 -1
10 4 10 6 0 11 -4 11 -10z"/>
<path d="M146 1363 c-3 -3 0 -13 7 -22 11 -14 10 -14 -13 0 -46 28 -112 17
-81 -14 8 -8 11 -6 11 6 0 21 16 22 24 2 3 -8 11 -15 18 -15 9 0 9 3 -2 11
-12 9 -11 10 5 6 11 -3 28 -8 38 -12 13 -5 17 -2 17 13 0 22 -13 36 -24 25z"/>
<path d="M183 1356 c4 -10 7 -22 7 -27 0 -5 4 -9 8 -9 14 0 7 43 -8 48 -9 3
-11 -1 -7 -12z"/>
<path d="M630 1351 c0 -29 15 -33 18 -5 1 13 -3 24 -8 24 -6 0 -10 -9 -10 -19z"/>
<path d="M664 1345 c1 -22 3 -23 13 -9 10 14 12 14 15 -3 2 -12 6 -14 11 -6 7
11 -17 43 -33 43 -4 0 -7 -11 -6 -25z"/>
<path d="M764 1359 c-4 -7 -2 -15 4 -17 7 -2 10 -8 6 -13 -3 -5 0 -9 5 -9 6 0
10 9 8 20 -4 26 -13 34 -23 19z"/>
<path d="M800 1351 c0 -10 8 -22 18 -26 13 -5 14 -3 5 6 -6 6 -9 18 -6 25 3 8
0 14 -6 14 -6 0 -11 -9 -11 -19z"/>
<path d="M910 1352 c0 -11 4 -23 8 -26 10 -6 9 30 -1 40 -4 4 -7 -2 -7 -14z"/>
<path d="M1065 1353 c-3 -9 0 -20 7 -25 20 -12 28 -9 28 11 0 24 -26 35 -35
14z m25 -13 c0 -5 -2 -10 -4 -10 -3 0 -8 5 -11 10 -3 6 -1 10 4 10 6 0 11 -4
11 -10z"/>
<path d="M394 1333 c1 -27 11 -30 20 -7 9 24 7 31 -8 31 -8 0 -13 -10 -12 -24z"/>
<path d="M510 1339 c0 -11 5 -17 10 -14 6 4 8 11 5 16 -4 5 -2 9 4 9 5 0 12
-8 14 -17 4 -15 5 -15 7 2 l1 20 9 -20 c8 -19 9 -19 9 3 1 18 -4 22 -29 22
-24 0 -30 -4 -30 -21z"/>
<path d="M584 1349 c-7 -12 15 -31 28 -23 4 3 8 12 8 20 0 17 -26 19 -36 3z"/>
<path d="M719 1342 c5 -9 8 -36 7 -60 0 -23 3 -42 7 -42 4 0 7 19 6 43 -1 23
1 49 5 57 5 11 0 16 -14 17 -16 1 -18 -2 -11 -15z"/>
<path d="M942 1343 c5 -25 38 -26 38 0 0 20 0 21 -16 1 -13 -16 -15 -16 -10
-1 3 9 1 17 -5 17 -6 0 -9 -7 -7 -17z"/>
<path d="M1040 1340 c0 -11 2 -20 4 -20 2 0 6 9 9 20 3 11 1 20 -4 20 -5 0 -9
-9 -9 -20z"/>
<path d="M7 1298 c-2 -7 -1 -22 3 -33 6 -17 8 -15 12 13 4 31 -5 45 -15 20z"/>
<path d="M247 1284 c-2 -13 0 -27 4 -30 5 -3 9 3 9 13 1 17 2 17 15 -1 14 -19
15 -19 15 -1 0 18 1 18 16 -1 8 -10 13 -13 9 -6 -4 7 0 12 10 12 9 0 14 4 11
9 -4 5 -18 8 -32 6 -14 -1 -31 4 -39 11 -11 11 -14 9 -18 -12z"/>
<path d="M371 1280 c0 -33 1 -34 10 -11 6 16 6 28 -1 35 -7 7 -10 -1 -9 -24z"/>
<path d="M600 1280 l0 -31 22 21 c19 18 20 22 8 30 -24 16 -30 12 -30 -20z"/>
<path d="M210 1288 c0 -7 5 -20 10 -28 8 -12 10 -9 10 13 0 15 -4 27 -10 27
-5 0 -10 -6 -10 -12z"/>
<path d="M396 1283 c-4 -9 -3 -20 2 -25 6 -6 12 -1 15 11 6 25 -8 38 -17 14z"/>
<path d="M840 1290 c0 -5 7 -10 16 -10 8 0 12 5 9 10 -3 6 -10 10 -16 10 -5 0
-9 -4 -9 -10z"/>
<path d="M34 1275 c4 -24 13 -27 19 -5 3 13 0 20 -8 20 -7 0 -12 -7 -11 -15z"/>
<path d="M70 1276 c0 -15 24 -28 34 -19 13 14 5 33 -14 33 -11 0 -20 -6 -20
-14z"/>
<path d="M121 1268 c0 -22 1 -22 9 -3 5 11 9 14 9 8 1 -7 6 -13 12 -13 5 0 7
5 4 10 -3 6 -2 10 4 10 5 0 12 -8 14 -17 4 -14 5 -12 6 5 1 18 -4 22 -29 22
-25 0 -30 -4 -29 -22z"/>
<path d="M426 1282 c-2 -4 -1 -14 4 -22 7 -11 11 -11 24 -1 9 7 13 17 10 22
-7 11 -31 12 -38 1z"/>
<path d="M474 1275 c4 -24 16 -30 16 -7 0 12 -4 22 -9 22 -5 0 -8 -7 -7 -15z"/>
<path d="M502 1270 c0 -14 2 -19 5 -12 2 6 2 18 0 25 -3 6 -5 1 -5 -13z"/>
<path d="M520 1275 c0 -8 5 -15 11 -15 5 0 7 5 4 10 -3 6 -1 10 4 10 6 0 11
-7 11 -16 0 -8 4 -13 10 -9 5 3 7 12 3 20 -7 20 -43 19 -43 0z"/>
<path d="M651 1268 c1 -17 2 -19 6 -5 6 21 12 22 28 0 13 -18 35 -10 35 13 0
9 -11 14 -35 14 -30 0 -35 -3 -34 -22z m59 2 c0 -5 -2 -10 -4 -10 -3 0 -8 5
-11 10 -3 6 -1 10 4 10 6 0 11 -4 11 -10z"/>
<path d="M752 1273 c2 -9 9 -18 16 -21 8 -2 10 2 5 15 -7 17 -6 17 20 0 32
-21 44 -22 28 -3 -9 11 -9 15 1 19 7 2 -6 5 -30 5 -35 1 -43 -2 -40 -15z"/>
<path d="M845 1260 c3 -5 8 -10 11 -10 2 0 4 5 4 10 0 6 -5 10 -11 10 -5 0 -7
-4 -4 -10z"/>
</g>
</svg>
